<svg width="34" height="34" viewBox="0 0 34 34" fill="none" xmlns="http://www.w3.org/2000/svg">
<g id="icon/editor/attach_file_24px">
<path id="icon/editor/attach_file_24px_2" d="M24.0414 15.5563L15.9096 23.6881C14.3469 25.2508 11.8155 25.2508 10.2528 23.6881C8.69007 22.1254 8.69007 19.5939 10.2528 18.0312L19.0916 9.19237C20.0674 8.21656 21.6513 8.21656 22.6271 9.19237C23.6029 10.1682 23.6029 11.7521 22.6271 12.7279L15.2025 20.1525C14.8136 20.5414 14.1772 20.5414 13.7883 20.1525C13.3994 19.7636 13.3994 19.1272 13.7883 18.7383L20.5058 12.0208L19.4452 10.9601L12.7276 17.6777C11.7518 18.6535 11.7518 20.2374 12.7276 21.2132C13.7035 22.189 15.2874 22.189 16.2632 21.2132L23.6878 13.7886C25.2505 12.2259 25.2505 9.69442 23.6878 8.13171C22.1251 6.569 19.5937 6.569 18.0309 8.13171L9.19211 16.9705C7.04251 19.1202 7.04251 22.5991 9.19211 24.7487C11.3417 26.8983 14.8207 26.8983 16.9703 24.7487L25.102 16.617L24.0414 15.5563Z" fill="#F2F2F2"/>
</g>
</svg>
