<svg width="227" height="272" viewBox="0 0 227 272" fill="none" xmlns="http://www.w3.org/2000/svg">
<circle cx="109.5" cy="70.5" r="59.5" fill="white"/>
<g clip-path="url(#clip0)">
<path d="M21.9405 43.0593C4.97883 84.3847 13.7424 123.446 51.9062 147.222C57.2774 150.336 62.6486 153.166 67.7371 155.714C82.4372 162.79 97.42 167.885 108.445 174.112C114.099 177.225 118.622 180.622 122.58 185.717L123.428 185.151C119.47 180.056 114.664 176.659 109.011 173.263C97.7027 167.036 83.0026 161.941 68.0198 154.864C62.6486 152.317 57.2774 149.486 52.1889 146.373C14.3078 123.163 5.54422 84.1017 22.2232 43.0593H21.9405Z" fill="#606060"/>
<path d="M81.3066 144.958C82.7201 146.09 85.2643 147.505 87.8086 149.486C96.0067 156.28 96.2894 161.092 95.4414 165.337C89.5048 160.808 82.1547 159.11 81.3066 144.958Z" fill="#606060"/>
<path d="M67.7372 139.297C74.5218 144.392 82.1546 150.902 80.7411 159.11C79.8931 158.544 77.9142 157.412 75.6526 155.714C73.3911 154.015 71.4122 152.034 70.2814 150.053C68.5853 147.222 67.7372 143.542 67.7372 139.297Z" fill="#606060"/>
<path d="M55.2986 132.786C62.0833 139.013 67.7372 145.523 66.3237 152.882C59.539 148.354 53.6025 143.542 55.2986 132.786Z" fill="#606060"/>
<path d="M44.5563 125.144C50.7756 133.069 54.1679 139.58 52.7544 145.524C45.4044 140.146 41.4467 133.636 44.5563 125.144Z" fill="#606060"/>
<path d="M35.7927 115.521C38.9024 121.465 42.2947 129.956 40.0332 136.466C32.4004 128.541 32.1177 121.182 35.7927 115.521Z" fill="#606060"/>
<path d="M29.2907 104.198C30.9868 110.709 32.4003 119.2 29.2907 125.144C24.7676 118.068 23.3541 110.143 29.2907 104.198Z" fill="#606060"/>
<path d="M25.3331 91.4612C26.1812 97.6883 25.6158 106.746 21.6581 111.841C17.4176 100.802 21.0927 94.2917 25.3331 91.4612Z" fill="#606060"/>
<path d="M23.9194 77.591C23.9194 79.0063 23.6367 80.9876 23.0713 83.252C22.2232 88.0639 20.2444 93.7249 16.5693 97.1215C14.8732 85.5164 19.3963 79.8554 23.9194 77.591Z" fill="#606060"/>
<path d="M25.0503 63.7217C24.2022 67.9674 21.3753 77.0251 15.156 81.8369C15.4387 69.9488 20.5272 64.8539 25.0503 63.7217Z" fill="#606060"/>
<path d="M28.4427 49.5692C26.7465 55.2302 22.7888 62.0234 16.2868 66.2692C17.7003 58.9098 21.0926 50.4183 28.4427 49.5692Z" fill="#606060"/>
<path d="M33.8137 35.6998C31.5522 41.3608 27.3118 47.0219 19.9617 50.7015C21.3752 47.3049 25.0502 35.9829 33.8137 35.6998Z" fill="#606060"/>
<path d="M34.9444 19C32.9656 24.9441 28.1598 37.6814 23.0712 41.078C22.5059 35.1339 25.6155 26.6424 34.9444 19Z" fill="#606060"/>
<path d="M68.3025 172.414C70.2813 172.98 73.1083 173.829 76.5006 174.112C87.243 175.244 90.6353 171.848 92.8969 168.734C91.4834 168.451 83.568 165.904 78.4795 167.319C75.3698 167.885 71.9775 169.867 68.3025 172.414Z" fill="#606060"/>
<path d="M51.9063 163.64C53.8852 164.206 56.7121 165.338 60.1045 166.187C63.4968 166.753 67.1718 167.036 70.8469 166.187C73.1084 165.621 75.0873 164.489 77.0661 161.658C76.2181 161.658 73.9565 160.809 71.4122 160.243C68.5853 159.677 65.4757 159.111 62.9314 159.394C59.2564 159.96 55.5813 161.375 51.9063 163.64Z" fill="#606060"/>
<path d="M35.7926 152.6C37.4887 153.732 40.3157 155.147 43.708 156.279C53.885 159.676 58.4081 157.129 61.2351 154.015C59.8216 153.732 52.1889 150.335 47.383 150.335C43.708 150.335 40.033 151.185 35.7926 152.6Z" fill="#606060"/>
<path d="M21.3752 138.165C22.7886 139.58 25.3329 141.844 28.1598 143.543C37.2061 148.921 42.2946 147.505 45.9696 144.675C39.4676 142.127 37.2061 137.599 21.3752 138.165Z" fill="#606060"/>
<path d="M10.35 120.615C15.1558 128.824 23.6367 137.315 32.4002 133.352C25.6155 127.974 25.8982 124.578 10.35 120.615Z" fill="#606060"/>
<path d="M4.41348 101.085C4.97886 103.066 5.82695 105.897 7.52312 109.01C12.3289 117.785 17.4174 119.483 21.9406 119.2C16.852 112.407 18.5482 109.01 4.41348 101.085Z" fill="#606060"/>
<path d="M3 80.9879C3.56539 90.0456 6.67503 100.518 15.7213 102.217C12.3289 95.1405 14.5905 92.0269 3 80.9879Z" fill="#606060"/>
<path d="M5.54419 61.7408C4.41341 70.7985 4.9788 80.9883 12.8943 84.951C11.7635 76.7425 14.025 74.1951 5.54419 61.7408Z" fill="#606060"/>
<path d="M11.4808 43.3426C8.65384 51.551 7.52306 61.4578 14.3077 67.1188C14.5904 59.7595 17.4174 56.929 11.4808 43.3426Z" fill="#606060"/>
<path d="M19.9616 26.3595C16.0039 34.0019 13.1769 43.0595 18.5481 49.8527C20.2443 42.4934 23.3539 41.3612 19.9616 26.3595Z" fill="#606060"/>
<path d="M198.908 43.3424C217.283 88.0644 206.823 129.956 153.676 155.147C148.305 157.695 143.217 159.959 138.128 161.941C119.47 169.866 106.184 175.244 98.5509 185.434L99.399 186C107.314 175.527 123.145 169.3 138.411 162.79C143.217 160.808 148.588 158.544 153.959 155.997C206.823 130.522 218.414 88.9136 199.473 43.0593L198.908 43.3424Z" fill="#606060"/>
<path d="M152.546 172.697C150.567 173.263 147.74 173.829 144.348 174.395C140.955 174.678 137.28 174.678 133.888 173.829C131.626 173.263 129.647 171.848 127.951 169.017C128.799 169.017 131.061 168.168 133.888 167.602C136.715 167.036 139.824 166.753 142.369 167.319C145.761 168.168 149.153 170.149 152.546 172.697Z" fill="#606060"/>
<path d="M167.246 164.771C161.592 166.753 155.09 168.451 148.871 167.036C146.609 166.47 144.348 165.054 142.369 162.507C143.499 162.224 145.761 161.658 148.305 161.092C152.828 160.243 158.482 159.393 167.246 164.771Z" fill="#606060"/>
<path d="M181.663 155.431C173.748 159.676 162.723 162.79 156.786 155.997C158.482 155.431 162.723 153.732 166.398 153.166C171.486 152.034 177.14 153.166 181.663 155.431Z" fill="#606060"/>
<path d="M194.95 143.259C188.165 148.92 177.14 153.449 170.638 148.071C175.444 145.806 184.207 140.711 194.95 143.259Z" fill="#606060"/>
<path d="M206.258 128.541C200.886 135.617 191.275 142.411 183.642 138.448C187.6 135.617 195.798 128.541 206.258 128.541Z" fill="#606060"/>
<path d="M213.608 111.84C210.498 119.483 202.583 128.257 194.385 126.842C197.494 123.162 204.279 113.822 213.608 111.84Z" fill="#606060"/>
<path d="M217 94.2917C216.152 100.519 211.064 111.841 202.3 112.69C204.562 108.444 208.802 97.9714 217 94.2917Z" fill="#606060"/>
<path d="M217 76.7422C217.283 84.3846 214.173 94.5744 206.823 97.688C207.954 93.4422 209.933 81.5541 217 76.7422Z" fill="#606060"/>
<path d="M213.891 59.7592C215.587 66.8354 214.456 76.7422 208.237 81.5541C208.519 77.8744 207.954 65.7032 213.891 59.7592Z" fill="#606060"/>
<path d="M208.519 43.9081C211.346 49.8522 211.912 59.4759 206.823 65.9861C206.258 60.8912 203.714 50.1353 208.519 43.9081Z" fill="#606060"/>
<path d="M200.887 28.9068C204.279 34.0017 206.54 42.2102 202.865 50.4187C201.452 45.8899 196.929 35.7 200.887 28.9068Z" fill="#606060"/>
<path d="M185.904 19.5665C194.95 25.5105 199.19 36.8326 198.342 41.0783C191.275 35.1343 187.317 22.68 185.904 19.5665Z" fill="#606060"/>
<path d="M140.955 144.675C133.04 150.053 124.841 155.997 127.103 165.055C132.757 160.526 140.39 158.828 140.955 144.675Z" fill="#606060"/>
<path d="M155.938 138.165C148.022 144.392 141.52 150.053 143.217 158.261C143.782 157.695 145.761 156.563 148.022 154.865C152.828 151.468 156.221 147.505 155.938 138.165Z" fill="#606060"/>
<path d="M169.225 130.523C162.44 137.599 157.069 142.977 158.765 151.185C159.33 150.619 161.309 149.487 163.288 147.789C167.811 143.826 170.921 139.58 169.225 130.523Z" fill="#606060"/>
<path d="M180.532 120.899C174.879 129.957 171.769 135.052 174.03 142.128C177.705 138.165 185.056 133.636 180.532 120.899Z" fill="#606060"/>
<path d="M188.73 109.577C185.055 120.616 183.925 125.428 187.034 131.372C187.317 131.089 187.6 130.523 188.165 129.674C188.73 128.825 189.296 127.975 189.861 126.843C192.971 121.465 193.536 116.37 188.73 109.577Z" fill="#606060"/>
<path d="M194.102 95.9902C193.536 101.651 192.123 110.143 195.798 115.804C196.081 116.37 196.646 116.936 196.929 117.502C197.211 116.653 200.321 109.86 199.19 105.048C198.625 101.651 196.929 98.8207 194.102 95.9902Z" fill="#606060"/>
<path d="M196.363 80.9888C197.211 90.6126 198.06 96.8397 203.713 101.652C203.713 101.368 203.996 100.519 203.996 99.6702C203.996 99.1041 203.996 98.821 204.279 98.2549C204.279 97.9719 204.279 97.6888 204.279 97.4058C204.279 97.1227 204.279 96.8397 204.279 96.5566C204.279 94.0092 204.279 91.1787 203.148 89.1973C201.735 86.0837 199.473 83.2532 196.363 80.9888Z" fill="#606060"/>
<path d="M195.232 65.7043C195.798 67.9687 197.777 76.4602 201.734 80.989C202.017 81.2721 202.583 81.8382 202.865 82.1212C203.713 82.9704 204.844 83.8195 206.258 84.3856C205.692 79.5738 206.823 71.6484 195.232 65.7043Z" fill="#606060"/>
<path d="M191.557 50.1365C194.95 58.0619 198.059 64.5721 205.127 67.4026C203.713 62.3077 203.713 54.9483 191.557 50.1365Z" fill="#606060"/>
<path d="M185.621 35.4175C190.144 43.3429 193.819 48.7209 201.169 50.7022C198.907 45.3243 197.777 38.8141 185.621 35.4175Z" fill="#606060"/>
</g>
<path d="M102.145 82.5308C99.7764 87.5496 96.4328 90.4772 88.0737 90.4772C84.3122 90.4772 73.0275 89.6407 69.5446 89.6407C63.5539 89.6407 60.9069 90.3378 56.3095 91.5925C60.7676 85.1796 68.2907 78.0697 71.2164 74.8633C88.2131 56.8794 102.563 42.2413 102.563 23.4209C102.563 4.73994 84.5908 1.3941 76.9284 1.3941C60.071 1.3941 51.712 10.7346 51.712 15.3351C51.712 17.2869 54.4983 18.5416 57.5633 18.5416C61.6035 18.5416 62.8574 17.5657 65.3651 12.5469C66.8975 9.47989 70.2412 6.13404 74.56 6.13404C80.1327 6.13404 89.6062 6.55228 89.6062 25.9303C89.6062 44.4718 82.2224 53.6729 71.6343 66.3592C59.0958 81.2761 52.5479 88.5255 46.6966 97.7265L46 101.909C50.5975 100.933 57.424 100.097 65.3651 100.097C68.5694 100.097 85.7053 101.212 89.3276 101.212C97.1293 101.212 97.5473 100.515 100.055 96.4718C101.448 94.2413 105.21 83.2279 105.21 83.2279L102.145 82.5308Z" fill="#606060"/>
<path d="M171 74.0268C171 58.6917 160.133 52.1394 150.102 45.7265C154.7 43.0777 167.935 34.4343 167.935 20.6327C167.935 4.32172 154.282 0 142.161 0C133.524 0 116.666 4.73994 116.666 23.2815C116.666 36.9437 127.533 44.0536 135.613 49.3512L134.917 49.63C128.787 52.1394 112.626 60.504 112.626 77.3727C112.626 92.8472 123.214 104 141.186 104C159.158 104 171 91.4531 171 74.0268ZM158.183 22.1662C158.183 32.622 151.914 39.5925 145.644 43.0777C138.539 37.9196 127.533 32.9008 127.533 20.6327C127.533 10.0375 133.942 5.15818 142.719 5.15818C149.127 5.15818 158.183 8.36461 158.183 22.1662ZM160.133 76.3968C160.133 92.8472 151.496 98.7024 141.465 98.7024C132.549 98.7024 123.493 93.5442 123.493 76.6756C123.493 61.7587 134.081 55.067 139.096 52.1394C150.938 59.2493 160.133 67.0563 160.133 76.3968Z" fill="#606060"/>
<path d="M2.33649 221.3C2.33649 218.733 2.87916 216.768 3.96449 215.404C5.04983 214.025 6.59716 213.336 8.60649 213.336C9.69183 213.336 10.6305 213.527 11.4225 213.908C12.2145 214.289 12.8672 214.832 13.3805 215.536C13.9085 216.225 14.2972 217.061 14.5465 218.044C14.7958 219.012 14.9205 220.097 14.9205 221.3C14.9205 223.867 14.3705 225.839 13.2705 227.218C12.1852 228.582 10.6305 229.264 8.60649 229.264C7.53583 229.264 6.60449 229.073 5.81249 228.692C5.03516 228.311 4.38249 227.775 3.85449 227.086C3.34116 226.382 2.95983 225.546 2.71049 224.578C2.46116 223.595 2.33649 222.503 2.33649 221.3ZM4.27249 221.3C4.27249 222.151 4.35316 222.957 4.51449 223.72C4.69049 224.483 4.95449 225.157 5.30649 225.744C5.65849 226.316 6.10583 226.778 6.64849 227.13C7.20583 227.467 7.85849 227.636 8.60649 227.636C9.97049 227.636 11.0412 227.123 11.8185 226.096C12.5958 225.055 12.9845 223.456 12.9845 221.3C12.9845 220.464 12.8965 219.665 12.7205 218.902C12.5592 218.125 12.2952 217.45 11.9285 216.878C11.5765 216.291 11.1218 215.829 10.5645 215.492C10.0218 215.14 9.36916 214.964 8.60649 214.964C7.25716 214.964 6.19383 215.485 5.41649 216.526C4.65383 217.553 4.27249 219.144 4.27249 221.3ZM24.4596 219.54H19.5976V229H17.8376V218H26.2196V229H24.4596V219.54ZM31.371 227.46C31.9137 227.548 32.4343 227.592 32.933 227.592C33.857 227.592 34.5023 227.416 34.869 227.064C35.2357 226.697 35.419 226.184 35.419 225.524C35.419 224.937 35.2357 224.453 34.869 224.072C34.517 223.691 33.8937 223.5 32.999 223.5C32.7497 223.5 32.4783 223.507 32.185 223.522C31.8917 223.537 31.6203 223.581 31.371 223.654V227.46ZM31.371 222.202C31.723 222.143 32.0603 222.107 32.383 222.092C32.7057 222.063 33.0137 222.048 33.307 222.048C34.055 222.048 34.6783 222.136 35.177 222.312C35.6903 222.473 36.101 222.701 36.409 222.994C36.717 223.287 36.9297 223.639 37.047 224.05C37.179 224.446 37.245 224.871 37.245 225.326C37.245 226.661 36.871 227.629 36.123 228.23C35.3897 228.831 34.1943 229.132 32.537 229.132C31.5983 229.132 30.623 229.088 29.611 229V218H31.371V222.202ZM38.983 218H40.743V229H38.983V218ZM51.1524 219.54H47.6984V229H45.9384V219.54H42.4844V218H51.1524V219.54ZM59.6321 224.138H54.6601V229H52.9001V218H54.6601V222.598H59.6321V218H61.3921V229H59.6321V224.138ZM66.5409 227.46C67.0836 227.548 67.6042 227.592 68.1029 227.592C69.0269 227.592 69.6722 227.416 70.0389 227.064C70.4056 226.697 70.5889 226.184 70.5889 225.524C70.5889 224.937 70.4056 224.453 70.0389 224.072C69.6869 223.691 69.0636 223.5 68.1689 223.5C67.9196 223.5 67.6482 223.507 67.3549 223.522C67.0616 223.537 66.7902 223.581 66.5409 223.654V227.46ZM66.5409 222.202C66.8929 222.143 67.2302 222.107 67.5529 222.092C67.8756 222.063 68.1836 222.048 68.4769 222.048C69.2249 222.048 69.8482 222.136 70.3469 222.312C70.8602 222.473 71.2709 222.701 71.5789 222.994C71.8869 223.287 72.0996 223.639 72.2169 224.05C72.3489 224.446 72.4149 224.871 72.4149 225.326C72.4149 226.661 72.0409 227.629 71.2929 228.23C70.5596 228.831 69.3642 229.132 67.7069 229.132C66.7682 229.132 65.7929 229.088 64.7809 229V218H66.5409V222.202ZM74.1529 218H75.9129V229H74.1529V218ZM82.1864 223.368L78.4904 218H80.6464L82.7364 221.036L83.3524 222.29L83.9904 221.036L86.1244 218H88.1044L84.3864 223.28L88.3244 229H86.2344L83.9024 225.656L83.2424 224.336L82.5604 225.656L80.1844 229H78.2264L82.1864 223.368ZM103.392 228.274C102.952 228.597 102.432 228.839 101.83 229C101.229 229.176 100.598 229.264 99.9383 229.264C99.0876 229.264 98.369 229.132 97.7823 228.868C97.1956 228.589 96.7116 228.201 96.3303 227.702C95.9636 227.189 95.6923 226.58 95.5163 225.876C95.355 225.157 95.2743 224.365 95.2743 223.5C95.2743 221.637 95.685 220.215 96.5063 219.232C97.3276 218.235 98.5083 217.736 100.048 217.736C100.752 217.736 101.346 217.795 101.83 217.912C102.329 218.015 102.776 218.169 103.172 218.374L102.666 219.892C102.329 219.701 101.955 219.555 101.544 219.452C101.134 219.335 100.694 219.276 100.224 219.276C98.1416 219.276 97.1003 220.684 97.1003 223.5C97.1003 224.057 97.1516 224.593 97.2543 225.106C97.3716 225.605 97.555 226.052 97.8043 226.448C98.0683 226.829 98.4056 227.137 98.8163 227.372C99.2416 227.607 99.7623 227.724 100.378 227.724C100.906 227.724 101.376 227.643 101.786 227.482C102.212 227.321 102.556 227.137 102.82 226.932L103.392 228.274ZM112.438 219.54H107.576V229H105.816V218H114.198V229H112.438V219.54ZM125.62 228.12C125.18 228.472 124.622 228.751 123.948 228.956C123.288 229.161 122.584 229.264 121.836 229.264C121 229.264 120.274 229.132 119.658 228.868C119.042 228.589 118.536 228.201 118.14 227.702C117.744 227.189 117.45 226.58 117.26 225.876C117.069 225.172 116.974 224.38 116.974 223.5C116.974 221.623 117.392 220.193 118.228 219.21C119.064 218.227 120.259 217.736 121.814 217.736C122.312 217.736 122.811 217.795 123.31 217.912C123.808 218.015 124.256 218.22 124.652 218.528C125.048 218.836 125.37 219.276 125.62 219.848C125.869 220.405 125.994 221.146 125.994 222.07C125.994 222.554 125.95 223.089 125.862 223.676H118.8C118.8 224.321 118.866 224.893 118.998 225.392C119.13 225.891 119.335 226.316 119.614 226.668C119.892 227.005 120.252 227.269 120.692 227.46C121.146 227.636 121.696 227.724 122.342 227.724C122.84 227.724 123.339 227.636 123.838 227.46C124.336 227.284 124.71 227.079 124.96 226.844L125.62 228.12ZM121.836 219.276C120.97 219.276 120.274 219.503 119.746 219.958C119.232 220.413 118.924 221.19 118.822 222.29H124.278C124.278 221.175 124.065 220.398 123.64 219.958C123.214 219.503 122.613 219.276 121.836 219.276ZM138.639 231.794H137.451L137.121 229H128.761V218H130.521V227.46H135.295V218H137.055V227.46H138.639V231.794ZM147.678 222.488L147.744 221.124H147.678L146.776 222.532L141.826 229H140.814V218H142.574V224.71L142.508 226.008H142.596L143.454 224.644L148.404 218H149.438V229H147.678V222.488ZM152.648 218.814C153.205 218.477 153.851 218.227 154.584 218.066C155.332 217.905 156.109 217.824 156.916 217.824C157.679 217.824 158.287 217.927 158.742 218.132C159.211 218.337 159.563 218.609 159.798 218.946C160.047 219.269 160.209 219.628 160.282 220.024C160.37 220.42 160.414 220.816 160.414 221.212C160.414 222.092 160.392 222.95 160.348 223.786C160.304 224.622 160.282 225.414 160.282 226.162C160.282 226.705 160.304 227.218 160.348 227.702C160.392 228.186 160.473 228.633 160.59 229.044H159.292L158.83 227.504H158.72C158.588 227.709 158.419 227.915 158.214 228.12C158.023 228.311 157.789 228.487 157.51 228.648C157.231 228.795 156.909 228.919 156.542 229.022C156.175 229.125 155.757 229.176 155.288 229.176C154.819 229.176 154.379 229.103 153.968 228.956C153.572 228.809 153.227 228.604 152.934 228.34C152.641 228.061 152.406 227.731 152.23 227.35C152.069 226.969 151.988 226.536 151.988 226.052C151.988 225.407 152.12 224.871 152.384 224.446C152.648 224.006 153.015 223.661 153.484 223.412C153.968 223.148 154.54 222.965 155.2 222.862C155.875 222.745 156.615 222.686 157.422 222.686C157.627 222.686 157.825 222.686 158.016 222.686C158.221 222.686 158.427 222.701 158.632 222.73C158.676 222.29 158.698 221.894 158.698 221.542C158.698 220.735 158.537 220.171 158.214 219.848C157.891 219.525 157.305 219.364 156.454 219.364C156.205 219.364 155.933 219.386 155.64 219.43C155.361 219.459 155.068 219.511 154.76 219.584C154.467 219.643 154.181 219.723 153.902 219.826C153.638 219.914 153.403 220.017 153.198 220.134L152.648 218.814ZM155.772 227.636C156.183 227.636 156.549 227.585 156.872 227.482C157.195 227.365 157.473 227.225 157.708 227.064C157.943 226.888 158.133 226.697 158.28 226.492C158.441 226.287 158.559 226.089 158.632 225.898V224.072C158.427 224.057 158.214 224.05 157.994 224.05C157.789 224.035 157.583 224.028 157.378 224.028C156.923 224.028 156.476 224.057 156.036 224.116C155.611 224.16 155.229 224.255 154.892 224.402C154.569 224.534 154.305 224.725 154.1 224.974C153.909 225.209 153.814 225.509 153.814 225.876C153.814 226.389 153.997 226.815 154.364 227.152C154.731 227.475 155.2 227.636 155.772 227.636ZM169.656 219.54H166.466C166.422 220.156 166.378 220.823 166.334 221.542C166.29 222.246 166.224 222.957 166.136 223.676C166.048 224.38 165.931 225.062 165.784 225.722C165.637 226.367 165.447 226.939 165.212 227.438C164.992 227.937 164.713 228.34 164.376 228.648C164.053 228.941 163.665 229.088 163.21 229.088C162.931 229.088 162.689 229.073 162.484 229.044C162.279 229.015 162.095 228.963 161.934 228.89L162.198 227.416C162.374 227.475 162.565 227.504 162.77 227.504C163.063 227.504 163.327 227.379 163.562 227.13C163.797 226.881 164.002 226.411 164.178 225.722C164.354 225.018 164.501 224.05 164.618 222.818C164.735 221.586 164.816 219.98 164.86 218H171.416V229H169.656V219.54ZM181.666 222.488L181.732 221.124H181.666L180.764 222.532L175.814 229H174.802V218H176.562V224.71L176.496 226.008H176.584L177.442 224.644L182.392 218H183.426V229H181.666V222.488ZM194.314 228.274C193.874 228.597 193.353 228.839 192.752 229C192.151 229.176 191.52 229.264 190.86 229.264C190.009 229.264 189.291 229.132 188.704 228.868C188.117 228.589 187.633 228.201 187.252 227.702C186.885 227.189 186.614 226.58 186.438 225.876C186.277 225.157 186.196 224.365 186.196 223.5C186.196 221.637 186.607 220.215 187.428 219.232C188.249 218.235 189.43 217.736 190.97 217.736C191.674 217.736 192.268 217.795 192.752 217.912C193.251 218.015 193.698 218.169 194.094 218.374L193.588 219.892C193.251 219.701 192.877 219.555 192.466 219.452C192.055 219.335 191.615 219.276 191.146 219.276C189.063 219.276 188.022 220.684 188.022 223.5C188.022 224.057 188.073 224.593 188.176 225.106C188.293 225.605 188.477 226.052 188.726 226.448C188.99 226.829 189.327 227.137 189.738 227.372C190.163 227.607 190.684 227.724 191.3 227.724C191.828 227.724 192.297 227.643 192.708 227.482C193.133 227.321 193.478 227.137 193.742 226.932L194.314 228.274ZM203.412 219.54H199.958V229H198.198V219.54H194.744V218H203.412V219.54ZM204.2 223.5C204.2 221.637 204.611 220.215 205.432 219.232C206.268 218.235 207.463 217.736 209.018 217.736C209.839 217.736 210.551 217.875 211.152 218.154C211.768 218.418 212.274 218.807 212.67 219.32C213.066 219.819 213.359 220.427 213.55 221.146C213.741 221.85 213.836 222.635 213.836 223.5C213.836 225.363 213.418 226.793 212.582 227.79C211.761 228.773 210.573 229.264 209.018 229.264C208.197 229.264 207.478 229.132 206.862 228.868C206.261 228.589 205.762 228.201 205.366 227.702C204.97 227.189 204.677 226.58 204.486 225.876C204.295 225.157 204.2 224.365 204.2 223.5ZM206.026 223.5C206.026 224.057 206.077 224.593 206.18 225.106C206.297 225.619 206.473 226.067 206.708 226.448C206.943 226.829 207.251 227.137 207.632 227.372C208.013 227.607 208.475 227.724 209.018 227.724C211.013 227.739 212.01 226.331 212.01 223.5C212.01 222.928 211.951 222.385 211.834 221.872C211.731 221.359 211.563 220.911 211.328 220.53C211.093 220.149 210.785 219.848 210.404 219.628C210.023 219.393 209.561 219.276 209.018 219.276C207.023 219.261 206.026 220.669 206.026 223.5ZM216.611 218.022C217.124 217.993 217.66 217.956 218.217 217.912C218.789 217.868 219.493 217.846 220.329 217.846C221.781 217.846 222.822 218.073 223.453 218.528C224.084 218.968 224.399 219.643 224.399 220.552C224.399 221.065 224.245 221.571 223.937 222.07C223.644 222.554 223.152 222.913 222.463 223.148V223.236C223.328 223.397 223.937 223.698 224.289 224.138C224.641 224.578 224.817 225.165 224.817 225.898C224.817 227.042 224.406 227.871 223.585 228.384C222.764 228.897 221.532 229.154 219.889 229.154C219.273 229.154 218.701 229.132 218.173 229.088C217.645 229.059 217.124 229.022 216.611 228.978V218.022ZM218.371 227.526C218.65 227.555 218.921 227.577 219.185 227.592C219.464 227.607 219.786 227.614 220.153 227.614C221.136 227.614 221.862 227.475 222.331 227.196C222.815 226.917 223.057 226.441 223.057 225.766C223.057 225.238 222.852 224.813 222.441 224.49C222.045 224.153 221.334 223.984 220.307 223.984H218.371V227.526ZM220.527 222.642C220.791 222.642 221.048 222.598 221.297 222.51C221.546 222.422 221.766 222.305 221.957 222.158C222.162 221.997 222.324 221.813 222.441 221.608C222.573 221.403 222.639 221.183 222.639 220.948C222.639 220.361 222.463 219.958 222.111 219.738C221.759 219.503 221.143 219.386 220.263 219.386C219.794 219.386 219.42 219.393 219.141 219.408C218.877 219.423 218.62 219.437 218.371 219.452V222.642H220.527ZM37.4318 258.05H36.4198V263H34.6598V252H36.4198V256.972L37.3658 256.664L40.8858 252H42.7998L39.3898 256.422L38.4658 257.148L39.6098 258.028L43.2838 263H41.1058L37.4318 258.05ZM51.0309 252.022C51.5442 251.993 52.0796 251.956 52.6369 251.912C53.2089 251.868 53.9129 251.846 54.7489 251.846C56.2009 251.846 57.2422 252.073 57.8729 252.528C58.5036 252.968 58.8189 253.643 58.8189 254.552C58.8189 255.065 58.6649 255.571 58.3569 256.07C58.0636 256.554 57.5722 256.913 56.8829 257.148V257.236C57.7482 257.397 58.3569 257.698 58.7089 258.138C59.0609 258.578 59.2369 259.165 59.2369 259.898C59.2369 261.042 58.8262 261.871 58.0049 262.384C57.1836 262.897 55.9516 263.154 54.3089 263.154C53.6929 263.154 53.1209 263.132 52.5929 263.088C52.0649 263.059 51.5442 263.022 51.0309 262.978V252.022ZM52.7909 261.526C53.0696 261.555 53.3409 261.577 53.6049 261.592C53.8836 261.607 54.2062 261.614 54.5729 261.614C55.5556 261.614 56.2816 261.475 56.7509 261.196C57.2349 260.917 57.4769 260.441 57.4769 259.766C57.4769 259.238 57.2716 258.813 56.8609 258.49C56.4649 258.153 55.7536 257.984 54.7269 257.984H52.7909V261.526ZM54.9469 256.642C55.2109 256.642 55.4676 256.598 55.7169 256.51C55.9662 256.422 56.1862 256.305 56.3769 256.158C56.5822 255.997 56.7436 255.813 56.8609 255.608C56.9929 255.403 57.0589 255.183 57.0589 254.948C57.0589 254.361 56.8829 253.958 56.5309 253.738C56.1789 253.503 55.5629 253.386 54.6829 253.386C54.2136 253.386 53.8396 253.393 53.5609 253.408C53.2969 253.423 53.0402 253.437 52.7909 253.452V256.642H54.9469ZM61.8334 252.814C62.3908 252.477 63.0361 252.227 63.7694 252.066C64.5174 251.905 65.2948 251.824 66.1014 251.824C66.8641 251.824 67.4728 251.927 67.9274 252.132C68.3968 252.337 68.7488 252.609 68.9834 252.946C69.2328 253.269 69.3941 253.628 69.4674 254.024C69.5554 254.42 69.5994 254.816 69.5994 255.212C69.5994 256.092 69.5774 256.95 69.5334 257.786C69.4894 258.622 69.4674 259.414 69.4674 260.162C69.4674 260.705 69.4894 261.218 69.5334 261.702C69.5774 262.186 69.6581 262.633 69.7754 263.044H68.4774L68.0154 261.504H67.9054C67.7734 261.709 67.6048 261.915 67.3994 262.12C67.2088 262.311 66.9741 262.487 66.6954 262.648C66.4168 262.795 66.0941 262.919 65.7274 263.022C65.3608 263.125 64.9428 263.176 64.4734 263.176C64.0041 263.176 63.5641 263.103 63.1534 262.956C62.7574 262.809 62.4128 262.604 62.1194 262.34C61.8261 262.061 61.5914 261.731 61.4154 261.35C61.2541 260.969 61.1734 260.536 61.1734 260.052C61.1734 259.407 61.3054 258.871 61.5694 258.446C61.8334 258.006 62.2001 257.661 62.6694 257.412C63.1534 257.148 63.7254 256.965 64.3854 256.862C65.0601 256.745 65.8008 256.686 66.6074 256.686C66.8128 256.686 67.0108 256.686 67.2014 256.686C67.4068 256.686 67.6121 256.701 67.8174 256.73C67.8614 256.29 67.8834 255.894 67.8834 255.542C67.8834 254.735 67.7221 254.171 67.3994 253.848C67.0768 253.525 66.4901 253.364 65.6394 253.364C65.3901 253.364 65.1188 253.386 64.8254 253.43C64.5468 253.459 64.2534 253.511 63.9454 253.584C63.6521 253.643 63.3661 253.723 63.0874 253.826C62.8234 253.914 62.5888 254.017 62.3834 254.134L61.8334 252.814ZM64.9574 261.636C65.3681 261.636 65.7348 261.585 66.0574 261.482C66.3801 261.365 66.6588 261.225 66.8934 261.064C67.1281 260.888 67.3188 260.697 67.4654 260.492C67.6268 260.287 67.7441 260.089 67.8174 259.898V258.072C67.6121 258.057 67.3994 258.05 67.1794 258.05C66.9741 258.035 66.7688 258.028 66.5634 258.028C66.1088 258.028 65.6614 258.057 65.2214 258.116C64.7961 258.16 64.4148 258.255 64.0774 258.402C63.7548 258.534 63.4908 258.725 63.2854 258.974C63.0948 259.209 62.9994 259.509 62.9994 259.876C62.9994 260.389 63.1828 260.815 63.5494 261.152C63.9161 261.475 64.3854 261.636 64.9574 261.636ZM72.9235 263V252H74.6835V261.46H78.4455V252H80.2055V261.46H83.9675V252H85.7275V263H72.9235ZM95.9867 256.488L96.0527 255.124H95.9867L95.0847 256.532L90.1347 263H89.1227V252H90.8827V258.71L90.8167 260.008H90.9047L91.7627 258.644L96.7127 252H97.7467V263H95.9867V256.488ZM110.218 256.466L110.35 254.376H110.24L109.448 256.07L106.786 260.382H106.17L103.398 256.07L102.672 254.376H102.584L102.76 256.444V263H101.132V252H102.87L105.95 256.928L106.588 258.204H106.632L107.292 256.884L110.174 252H111.934V263H110.218V256.466ZM124.411 259.128L125.027 261.24H125.137L125.621 259.106L127.755 252H129.537L126.281 261.878C126.032 262.597 125.783 263.293 125.533 263.968C125.299 264.643 125.035 265.244 124.741 265.772C124.448 266.3 124.118 266.718 123.751 267.026C123.385 267.349 122.959 267.51 122.475 267.51C121.947 267.51 121.515 267.437 121.177 267.29L121.485 265.772C121.676 265.845 121.859 265.882 122.035 265.882C122.446 265.882 122.842 265.662 123.223 265.222C123.605 264.797 123.92 264.056 124.169 263L119.747 252H121.771L124.411 259.128ZM138.799 262.274C138.359 262.597 137.838 262.839 137.237 263C136.635 263.176 136.005 263.264 135.345 263.264C134.494 263.264 133.775 263.132 133.189 262.868C132.602 262.589 132.118 262.201 131.737 261.702C131.37 261.189 131.099 260.58 130.923 259.876C130.761 259.157 130.681 258.365 130.681 257.5C130.681 255.637 131.091 254.215 131.913 253.232C132.734 252.235 133.915 251.736 135.455 251.736C136.159 251.736 136.753 251.795 137.237 251.912C137.735 252.015 138.183 252.169 138.579 252.374L138.073 253.892C137.735 253.701 137.361 253.555 136.951 253.452C136.54 253.335 136.1 253.276 135.631 253.276C133.548 253.276 132.507 254.684 132.507 257.5C132.507 258.057 132.558 258.593 132.661 259.106C132.778 259.605 132.961 260.052 133.211 260.448C133.475 260.829 133.812 261.137 134.223 261.372C134.648 261.607 135.169 261.724 135.785 261.724C136.313 261.724 136.782 261.643 137.193 261.482C137.618 261.321 137.963 261.137 138.227 260.932L138.799 262.274ZM147.119 253.54H143.929C143.885 254.156 143.841 254.823 143.797 255.542C143.753 256.246 143.687 256.957 143.599 257.676C143.511 258.38 143.394 259.062 143.247 259.722C143.1 260.367 142.91 260.939 142.675 261.438C142.455 261.937 142.176 262.34 141.839 262.648C141.516 262.941 141.128 263.088 140.673 263.088C140.394 263.088 140.152 263.073 139.947 263.044C139.742 263.015 139.558 262.963 139.397 262.89L139.661 261.416C139.837 261.475 140.028 261.504 140.233 261.504C140.526 261.504 140.79 261.379 141.025 261.13C141.26 260.881 141.465 260.411 141.641 259.722C141.817 259.018 141.964 258.05 142.081 256.818C142.198 255.586 142.279 253.98 142.323 252H148.879V263H147.119V253.54ZM155.499 259.128L156.115 261.24H156.225L156.709 259.106L158.843 252H160.625L157.369 261.878C157.12 262.597 156.871 263.293 156.621 263.968C156.387 264.643 156.123 265.244 155.829 265.772C155.536 266.3 155.206 266.718 154.839 267.026C154.473 267.349 154.047 267.51 153.563 267.51C153.035 267.51 152.603 267.437 152.265 267.29L152.573 265.772C152.764 265.845 152.947 265.882 153.123 265.882C153.534 265.882 153.93 265.662 154.311 265.222C154.693 264.797 155.008 264.056 155.257 263L150.835 252H152.859L155.499 259.128ZM168.937 253.54H164.273V263H162.513V252H168.937V253.54ZM170.458 252.814C171.016 252.477 171.661 252.227 172.394 252.066C173.142 251.905 173.92 251.824 174.726 251.824C175.489 251.824 176.098 251.927 176.552 252.132C177.022 252.337 177.374 252.609 177.608 252.946C177.858 253.269 178.019 253.628 178.092 254.024C178.18 254.42 178.224 254.816 178.224 255.212C178.224 256.092 178.202 256.95 178.158 257.786C178.114 258.622 178.092 259.414 178.092 260.162C178.092 260.705 178.114 261.218 178.158 261.702C178.202 262.186 178.283 262.633 178.4 263.044H177.102L176.64 261.504H176.53C176.398 261.709 176.23 261.915 176.024 262.12C175.834 262.311 175.599 262.487 175.32 262.648C175.042 262.795 174.719 262.919 174.352 263.022C173.986 263.125 173.568 263.176 173.098 263.176C172.629 263.176 172.189 263.103 171.778 262.956C171.382 262.809 171.038 262.604 170.744 262.34C170.451 262.061 170.216 261.731 170.04 261.35C169.879 260.969 169.798 260.536 169.798 260.052C169.798 259.407 169.93 258.871 170.194 258.446C170.458 258.006 170.825 257.661 171.294 257.412C171.778 257.148 172.35 256.965 173.01 256.862C173.685 256.745 174.426 256.686 175.232 256.686C175.438 256.686 175.636 256.686 175.826 256.686C176.032 256.686 176.237 256.701 176.442 256.73C176.486 256.29 176.508 255.894 176.508 255.542C176.508 254.735 176.347 254.171 176.024 253.848C175.702 253.525 175.115 253.364 174.264 253.364C174.015 253.364 173.744 253.386 173.45 253.43C173.172 253.459 172.878 253.511 172.57 253.584C172.277 253.643 171.991 253.723 171.712 253.826C171.448 253.914 171.214 254.017 171.008 254.134L170.458 252.814ZM173.582 261.636C173.993 261.636 174.36 261.585 174.682 261.482C175.005 261.365 175.284 261.225 175.518 261.064C175.753 260.888 175.944 260.697 176.09 260.492C176.252 260.287 176.369 260.089 176.442 259.898V258.072C176.237 258.057 176.024 258.05 175.804 258.05C175.599 258.035 175.394 258.028 175.188 258.028C174.734 258.028 174.286 258.057 173.846 258.116C173.421 258.16 173.04 258.255 172.702 258.402C172.38 258.534 172.116 258.725 171.91 258.974C171.72 259.209 171.624 259.509 171.624 259.876C171.624 260.389 171.808 260.815 172.174 261.152C172.541 261.475 173.01 261.636 173.582 261.636ZM190.634 256.466L190.766 254.376H190.656L189.864 256.07L187.202 260.382H186.586L183.814 256.07L183.088 254.376H183L183.176 256.444V263H181.548V252H183.286L186.366 256.928L187.004 258.204H187.048L187.708 256.884L190.59 252H192.35V263H190.634V256.466Z" fill="#606060"/>
<defs>
<clipPath id="clip0">
<rect width="214" height="167" fill="white" transform="translate(3 19)"/>
</clipPath>
</defs>
</svg>
