<svg width="95" height="95" viewBox="0 0 95 95" fill="none" xmlns="http://www.w3.org/2000/svg">
<path d="M90.4032 3.06451H81.2097V6.12903H90.4032C91.2486 6.12903 91.9355 6.81585 91.9355 7.66129V15.3226H27.5806V7.66129C27.5806 6.81585 28.2675 6.12903 29.1129 6.12903H38.3064V3.06451H29.1129C26.5788 3.06451 24.5161 5.12723 24.5161 7.66129V47.5539H27.5806V18.3871H91.9355V59.7581C91.9355 60.6035 91.2486 61.2903 90.4032 61.2903H46.1899V64.3548H90.4032C92.9373 64.3548 95 62.2921 95 59.7581V7.66129C95 5.12723 92.9373 3.06451 90.4032 3.06451Z" fill="white"/>
<path d="M85.8064 55.1613V24.5161H33.7097V50.1523H36.7742V45.9677H45.9677V52.0968H40.1372V55.1613H85.8064ZM73.5484 52.0968V45.9677H82.7419V52.0968H73.5484ZM61.2903 36.7742H70.4838V42.9032H61.2903V36.7742ZM58.2258 42.9032H49.0322V36.7742H58.2258V42.9032ZM73.5484 36.7742H82.7419V42.9032H73.5484V36.7742ZM82.7419 27.5806V33.7097H73.5484V27.5806H82.7419ZM70.4838 33.7097H61.2903V27.5806H70.4838V33.7097ZM58.2258 27.5806V33.7097H49.0322V27.5806H58.2258ZM45.9677 27.5806V33.7097H36.7742V27.5806H45.9677ZM36.7742 42.9032V36.7742H45.9677V42.9032H36.7742ZM49.0322 45.9677H58.2258V52.0968H49.0322V45.9677ZM61.2903 52.0968V45.9677H70.4838V52.0968H61.2903Z" fill="white"/>
<path d="M79.6774 9.19355H39.8387C38.1486 9.19355 36.7742 7.81915 36.7742 6.12903V3.06452C36.7742 1.37439 38.1486 0 39.8387 0H79.6774C81.3675 0 82.7419 1.37439 82.7419 3.06452V6.12903C82.7419 7.81915 81.3675 9.19355 79.6774 9.19355Z" fill="#FECA8B"/>
<path d="M24.5161 95C10.9989 95 0 84.0011 0 70.4839C0 56.9666 10.9989 45.9677 24.5161 45.9677C38.0334 45.9677 49.0323 56.9666 49.0323 70.4839C49.0323 84.0011 38.0334 95 24.5161 95Z" fill="#FECA8B"/>
<path d="M24.5161 88.871C14.3769 88.871 6.12903 80.6231 6.12903 70.4839C6.12903 60.3446 14.3769 52.0968 24.5161 52.0968C34.6554 52.0968 42.9032 60.3446 42.9032 70.4839C42.9032 80.6231 34.6554 88.871 24.5161 88.871ZM24.5161 55.1613C16.067 55.1613 9.19354 62.0347 9.19354 70.4839C9.19354 78.933 16.067 85.8064 24.5161 85.8064C32.9652 85.8064 39.8387 78.933 39.8387 70.4839C39.8387 62.0347 32.9652 55.1613 24.5161 55.1613Z" fill="white"/>
<path d="M30.6452 72.0161H22.9839V61.2903H26.0484V68.9516H30.6452V72.0161Z" fill="white"/>
</svg>
