<svg width="21" height="39" viewBox="0 0 21 39" fill="none" xmlns="http://www.w3.org/2000/svg">
<path d="M15.5772 0.46167H5.19239C3.74989 0.46167 2.52402 0.966531 1.5142 1.97597C0.50486 2.9856 0 4.21147 0 5.65407V16.0385C0 17.481 0.504576 18.7067 1.5142 19.7161C2.52392 20.7255 3.75017 21.2305 5.19239 21.2305H11.25C11.971 21.2305 12.5841 21.483 13.089 21.9877C13.5938 22.4921 13.8461 23.1054 13.8461 23.8269V24.6918C13.8461 26.603 13.1699 28.2341 11.8179 29.5865C10.4658 30.9382 8.8343 31.6144 6.92293 31.6144H5.19239C4.72333 31.6144 4.31783 31.7861 3.97513 32.1284C3.63272 32.4707 3.46137 32.8765 3.46137 33.3453V36.8072C3.46137 37.2752 3.63272 37.6818 3.97513 38.0242C4.31812 38.3664 4.72324 38.5382 5.19239 38.5382H6.92303C8.79821 38.5382 10.5876 38.1726 12.2914 37.4427C13.9951 36.7127 15.4689 35.7253 16.713 34.4813C17.9567 33.2371 18.9439 31.7636 19.674 30.0598C20.404 28.3561 20.7692 26.5668 20.7692 24.6919V5.65369C20.7692 4.21109 20.2643 2.98531 19.2549 1.97587C18.2454 0.966436 17.0193 0.46167 15.5772 0.46167Z" fill="white"/>
</svg>
