<svg width="95" height="95" viewBox="0 0 95 95" fill="none" xmlns="http://www.w3.org/2000/svg">
<path d="M82.7419 76.6129H49.0323C46.4979 76.6129 44.4355 78.6753 44.4355 81.2097V93.4678H87.3387V81.2097C87.3387 78.6753 85.2763 76.6129 82.7419 76.6129Z" fill="#F0BC5E"/>
<path d="M38.3065 75.0806C38.3065 73.3875 39.6778 72.0161 41.371 72.0161V42.9032H1.53226V78.1452H38.3065V75.0806Z" fill="#F0BC5E"/>
<path d="M91.9355 70.7658V64.3548H84.979C86.4408 62.726 87.3387 60.5824 87.3387 58.2258C87.3387 53.1556 83.2154 49.0323 78.1452 49.0323H76.547C76.239 45.2721 74.8125 41.6468 72.4482 38.6926L68.9746 34.3517L63.3803 41.066C61.5079 43.3139 58.8877 44.8139 56.004 45.2966C52.8522 45.8222 50.5645 48.5205 50.5645 51.7168C50.5645 53.0054 50.9522 54.2006 51.6003 55.2119C48.4546 55.4693 45.9677 58.0802 45.9677 61.2903C45.9677 62.4119 46.2926 63.4493 46.8197 64.3548H42.9032V35.2419C42.9032 32.1085 41.0078 29.4163 38.3064 28.2303V21.4516H26.0484V12.2581H38.3064V4.98903L21.8914 0.0643548L12.2581 0V12.2581H16.8548V21.4516H4.59677V28.2303C1.8954 29.4163 0 32.1085 0 35.2419V87.3387C0 91.5631 3.43685 95 7.66129 95H35.2419C36.4585 95 37.6491 94.6966 38.7232 94.1481C39.4725 94.6798 40.3827 95 41.371 95H90.4032C92.9376 95 95 92.9376 95 90.4032V75.0806C95 73.0856 93.7144 71.4002 91.9355 70.7658ZM88.871 70.4839H85.8064V67.4194H88.871V70.4839ZM52.0968 67.4194V70.4839H49.0323V67.4194H52.0968ZM55.1613 67.4194H58.2258V70.4839H55.1613V67.4194ZM61.2903 67.4194H64.3548V70.4839H61.2903V67.4194ZM67.4194 67.4194H70.4839V70.4839H67.4194V67.4194ZM73.5484 67.4194H76.6129V70.4839H73.5484V67.4194ZM79.6774 67.4194H82.7419V70.4839H79.6774V67.4194ZM49.0323 61.2903C49.0323 59.6002 50.4067 58.2258 52.0968 58.2258H57.0735H58.2258H59.7581V55.1613H58.2258H57.0735C55.1751 55.1613 53.629 53.6152 53.629 51.7168C53.629 50.0252 54.8395 48.5971 56.5066 48.3182C60.1151 47.716 63.3926 45.8375 65.7354 43.0273L68.9271 39.1967L70.0548 40.6079C71.987 43.0212 73.1684 45.9677 73.4672 49.0323H68.9516V52.0968H78.1452C81.5253 52.0968 84.2742 54.8456 84.2742 58.2258C84.2742 61.606 81.5253 64.3548 78.1452 64.3548H76.6129H52.0968C50.4067 64.3548 49.0323 62.9804 49.0323 61.2903ZM45.9677 67.4194V70.4839H42.9032V67.4194H45.9677ZM35.2419 27.5806H32.1774V24.5161H35.2419V27.5806ZM13.7903 27.5806V24.5161H16.8548V27.5806H13.7903ZM19.9194 24.5161H22.9839V27.5806H19.9194V24.5161ZM26.0484 24.5161H29.1129V27.5806H26.0484V24.5161ZM15.3226 3.06452H21.2279L35.2419 7.26903V9.19355H15.3226V3.06452ZM19.9194 12.2581H22.9839V21.4516H19.9194V12.2581ZM7.66129 24.5161H10.7258V27.5806H7.66129V24.5161ZM7.66129 91.9355C5.12694 91.9355 3.06452 89.8731 3.06452 87.3387V35.2419C3.06452 32.7076 5.12694 30.6452 7.66129 30.6452H35.2419C37.7763 30.6452 39.8387 32.7076 39.8387 35.2419V70.7658C38.0598 71.4002 36.7742 73.0856 36.7742 75.0806V90.4032C36.7742 90.8077 36.8431 91.1939 36.9427 91.5677C36.4019 91.7853 35.8334 91.9355 35.2419 91.9355H7.66129ZM91.9355 90.4032C91.9355 91.249 91.249 91.9355 90.4032 91.9355H41.371C40.5252 91.9355 39.8387 91.249 39.8387 90.4032V75.0806C39.8387 74.2348 40.5252 73.5484 41.371 73.5484H90.4032C91.249 73.5484 91.9355 74.2348 91.9355 75.0806V90.4032Z" fill="white"/>
<path d="M72.0161 55.1613H62.8226V58.2258H72.0161V55.1613Z" fill="white"/>
<path d="M64.3548 84.2742H50.5645V87.3387H64.3548V84.2742Z" fill="white"/>
<path d="M81.2097 84.2742H67.4193V87.3387H81.2097V84.2742Z" fill="white"/>
<path d="M30.6452 70.4839H12.2581V73.5484H30.6452V70.4839Z" fill="white"/>
<path d="M21.4516 67.4193C24.8318 67.4193 27.5806 64.6704 27.5806 61.2902V60.8428C27.5806 59.8974 27.3569 58.9505 26.934 58.1016L21.4516 47.1398L15.9692 58.1031C15.5463 58.9505 15.3226 59.8974 15.3226 60.8428V61.2902C15.3226 64.6704 18.0714 67.4193 21.4516 67.4193ZM18.3871 60.8428C18.3871 60.3693 18.499 59.8959 18.7104 59.4714L21.4516 53.989L24.1928 59.4699C24.4043 59.8959 24.5161 60.3693 24.5161 60.8428V61.2902C24.5161 62.9803 23.1417 64.3547 21.4516 64.3547C19.7615 64.3547 18.3871 62.9803 18.3871 61.2902V60.8428Z" fill="white"/>
</svg>
