<svg width="41" height="41" viewBox="0 0 41 41" fill="none" xmlns="http://www.w3.org/2000/svg">
<path d="M41 20.5C41 9.177 31.823 0 20.5 0C9.177 0 0 9.177 0 20.5C0 30.734 7.49531 39.2143 17.2969 40.7518V26.4258H12.0918V20.5H17.2969V15.9836C17.2969 10.8465 20.3559 8.00781 25.0404 8.00781C27.2826 8.00781 29.6289 8.4082 29.6289 8.4082V13.4531H27.0424C24.4959 13.4531 23.7031 15.0347 23.7031 16.6562V20.5H29.3886L28.4798 26.4258H23.7031V40.7518C33.5047 39.2143 41 30.734 41 20.5Z" fill="#1877F2"/>
<path d="M28.4798 26.4258L29.3887 20.5H23.7032V16.6562C23.7032 15.0347 24.4959 13.4531 27.0424 13.4531H29.6289V8.4082C29.6289 8.4082 27.2826 8.00781 25.0405 8.00781C20.3559 8.00781 17.2969 10.8465 17.2969 15.9836V20.5H12.0918V26.4258H17.2969V40.7518C18.3419 40.916 19.411 41 20.5 41C21.5891 41 22.6582 40.916 23.7032 40.7518V26.4258H28.4798Z" fill="white"/>
</svg>
