<svg width="45" height="45" viewBox="0 0 45 45" fill="none" xmlns="http://www.w3.org/2000/svg">
<circle cx="22.8814" cy="22.881" r="19.0678" fill="white"/>
<g clip-path="url(#clip0)">
<path fill-rule="evenodd" clip-rule="evenodd" d="M22.5001 0C34.9266 0 45.0001 10.0736 45.0001 22.5001C45.0001 34.9266 34.9266 45.0001 22.5001 45.0001C10.0736 45.0001 0 34.9266 0 22.5001C0 10.0736 10.0736 0 22.5001 0ZM17.0134 9.63374H27.9873C32.1083 9.63374 35.4783 12.962 35.4783 17.028V27.9723C35.4783 32.0392 32.1083 35.3664 27.9874 35.3664L17.0134 35.3663C12.8924 35.3663 9.52196 32.039 9.52196 27.9722V17.0278C9.52196 12.962 12.8924 9.63374 17.0134 9.63374ZM22.4303 15.5526C26.4348 15.5526 29.6844 18.8023 29.6844 22.8068C29.6844 26.8118 26.4348 30.061 22.4303 30.061C18.4245 30.061 15.1755 26.8118 15.1755 22.8068C15.1755 18.8023 18.4247 15.5526 22.4303 15.5526ZM22.4303 18.0028C25.0821 18.0028 27.2344 20.1546 27.2344 22.8068C27.2344 25.4591 25.0821 27.6113 22.4303 27.6113C19.7775 27.6113 17.6256 25.459 17.6256 22.8068C17.6256 20.1546 19.7775 18.0028 22.4303 18.0028ZM29.4484 14.5471C30.099 14.5471 30.6264 15.0745 30.6264 15.7244C30.6264 16.375 30.099 16.9024 29.4484 16.9024C28.7984 16.9024 28.2711 16.375 28.2711 15.7244C28.2711 15.0744 28.7985 14.5471 29.4484 14.5471ZM17.9102 11.7357H27.0914C30.5389 11.7357 33.3584 14.5413 33.3584 17.9697V27.197C33.3584 30.6253 30.5389 33.4305 27.0914 33.4305L17.9102 33.4306C14.4627 33.4306 11.6427 30.6256 11.6427 27.1971V17.9696C11.6427 14.5413 14.4627 11.7357 17.9102 11.7357Z" fill="url(#paint0_linear)"/>
</g>
<defs>
<linearGradient id="paint0_linear" x1="33.7745" y1="41.6065" x2="11.2256" y2="3.3935" gradientUnits="userSpaceOnUse">
<stop stop-color="#F58529"/>
<stop offset="0.169" stop-color="#FEDA77"/>
<stop offset="0.478" stop-color="#DD2A7B"/>
<stop offset="0.78" stop-color="#8134AF"/>
<stop offset="1" stop-color="#515BD4"/>
</linearGradient>
<clipPath id="clip0">
<rect width="45" height="45" fill="white"/>
</clipPath>
</defs>
</svg>
