<svg width="24" height="24" viewBox="0 0 24 24" fill="none" xmlns="http://www.w3.org/2000/svg">
<g clip-path="url(#clip0)">
<path d="M6.56245 16.0808H0V18.5795C0 19.8617 1.08716 20.9098 2.43135 20.9098H6.56264C6.56245 19.3001 6.56245 16.0808 6.56245 16.0808Z" fill="#68594B"/>
<path d="M11.0568 12.9336C11.1311 13.0063 11.1845 13.0988 11.2064 13.2031L12.0733 17.3673L16.9629 7.34012C16.9755 7.31408 16.9858 7.29101 16.9945 7.26978L11.0568 12.9336Z" fill="#68594B"/>
<path d="M10.1723 13.7696L8.62512 13.511C8.62512 13.8236 8.62512 14.1144 8.62512 14.1144H10.2502L10.1723 13.7696Z" fill="#68594B"/>
<path d="M21.5735 3.73999H8.62512V9.91799L16.4245 6.3319C16.9876 6.07306 17.5251 6.1133 17.8558 6.4183C17.8688 6.42864 17.8827 6.43935 17.894 6.45006C17.9346 6.48956 17.9629 6.52612 17.9824 6.55547C17.9878 6.56267 17.9934 6.56988 17.9979 6.57671C18.0087 6.59221 18.0211 6.61289 18.0312 6.63135C18.0327 6.63412 18.0345 6.63726 18.0358 6.64003C18.0362 6.64077 18.0368 6.64169 18.0374 6.64225C18.2176 6.96201 18.1994 7.34621 17.9828 7.79004L14.898 14.1133H24V6.05921C24 4.7772 22.9175 3.73999 21.5735 3.73999Z" fill="#68594B"/>
<path d="M6.01645 11.1254L6.56245 10.8753V3.73999H2.43135C1.08716 3.73999 0 4.7772 0 6.05921V14.1135H6.56245C6.56245 14.1135 6.56245 13.6143 6.56245 13.1592L6.31007 13.1169C5.4451 12.9868 5.24419 12.523 5.20316 12.2583C5.16213 11.9935 5.21535 11.4941 6.01645 11.1254Z" fill="#68594B"/>
<path d="M13.9471 16.081L13.0755 17.8622C12.7546 18.5213 12.3226 18.6568 12.0166 18.6568C11.8188 18.6568 11.1588 18.585 10.9742 17.6034L10.6564 16.0808C9.83185 16.0808 8.62488 16.0808 8.62488 16.0808V20.91H21.5733C22.9173 20.91 23.9998 19.8619 23.9998 18.5797V16.081H13.9471Z" fill="#68594B"/>
</g>
<defs>
<clipPath id="clip0">
<rect width="24" height="22.8931" fill="white" transform="translate(0 0.878418)"/>
</clipPath>
</defs>
</svg>
