<svg width="45" height="45" viewBox="0 0 45 45" fill="none" xmlns="http://www.w3.org/2000/svg">
<path d="M15.5772 3.46167H5.19239C3.74989 3.46167 2.52402 3.96653 1.5142 4.97597C0.50486 5.9856 0 7.21147 0 8.65407V19.0385C0 20.481 0.504576 21.7067 1.5142 22.7161C2.52392 23.7255 3.75017 24.2305 5.19239 24.2305H11.25C11.971 24.2305 12.5841 24.483 13.089 24.9877C13.5938 25.4921 13.8461 26.1054 13.8461 26.8269V27.6918C13.8461 29.603 13.1699 31.2341 11.8179 32.5865C10.4658 33.9382 8.8343 34.6144 6.92293 34.6144H5.19239C4.72333 34.6144 4.31783 34.7861 3.97513 35.1284C3.63272 35.4707 3.46137 35.8765 3.46137 36.3453V39.8072C3.46137 40.2752 3.63272 40.6818 3.97513 41.0242C4.31812 41.3664 4.72324 41.5382 5.19239 41.5382H6.92303C8.79821 41.5382 10.5876 41.1726 12.2914 40.4427C13.9951 39.7127 15.4689 38.7253 16.713 37.4813C17.9567 36.2371 18.9439 34.7636 19.674 33.0598C20.404 31.3561 20.7692 29.5668 20.7692 27.6919V8.65369C20.7692 7.21109 20.2643 5.98531 19.2549 4.97587C18.2454 3.96644 17.0193 3.46167 15.5772 3.46167Z" fill="white"/>
<path d="M43.4851 4.97597C42.4757 3.96653 41.2498 3.46167 39.8073 3.46167H29.4229C27.9804 3.46167 26.7545 3.96653 25.7451 4.97597C24.7357 5.98569 24.2311 7.21147 24.2311 8.65407V19.0385C24.2311 20.481 24.7357 21.7067 25.7451 22.7161C26.7545 23.7255 27.9805 24.2305 29.4229 24.2305H35.4805C36.2015 24.2305 36.8151 24.483 37.3198 24.9877C37.8241 25.4924 38.077 26.1054 38.077 26.8269V27.6918C38.077 29.603 37.4008 31.2341 36.0485 32.5865C34.6965 33.9382 33.0654 34.6144 31.1538 34.6144H29.4229C28.9542 34.6144 28.5483 34.7861 28.206 35.1284C27.8634 35.4707 27.6919 35.8765 27.6919 36.3453V39.8072C27.6919 40.2752 27.8634 40.6818 28.206 41.0242C28.5482 41.3664 28.9541 41.5382 29.4229 41.5382H31.1538C33.0287 41.5382 34.818 41.1726 36.522 40.4427C38.2255 39.7127 39.699 38.7253 40.9432 37.4813C42.1872 36.2371 43.175 34.7633 43.9046 33.0598C44.6345 31.3564 44.9999 29.5668 44.9999 27.6919V8.65369C44.9996 7.21109 44.4952 5.98531 43.4851 4.97597Z" fill="white"/>
</svg>
