<svg width="25" height="25" viewBox="0 0 25 25" fill="none" xmlns="http://www.w3.org/2000/svg">
<path d="M16.7455 0H8.29976C6.86391 0 5.64391 1.17076 5.64391 2.60621V22.3968C5.64391 23.8322 6.8381 25 8.27395 25L16.7336 24.9909C18.1692 24.9909 19.3438 23.8229 19.3438 22.3872L19.3561 2.60482C19.3559 1.16421 18.1871 0 16.7455 0ZM11.3025 1.56254H13.7529C13.9681 1.56254 14.1434 1.73728 14.1434 1.95312C14.1434 2.16897 13.9681 2.34371 13.7529 2.34371H11.3025C11.0867 2.34371 10.9119 2.16897 10.9119 1.95312C10.9119 1.73728 11.0867 1.56254 11.3025 1.56254ZM9.83013 1.68684C9.97489 1.54228 10.2384 1.5403 10.3829 1.68684C10.4554 1.75912 10.4983 1.86059 10.4983 1.96424C10.4983 2.06591 10.4554 2.16718 10.3829 2.23966C10.3109 2.31213 10.209 2.35483 10.1075 2.35483C10.0041 2.35483 9.90459 2.31213 9.83013 2.23966C9.75805 2.16738 9.71695 2.06591 9.71695 1.96424C9.71675 1.86059 9.75805 1.75912 9.83013 1.68684ZM12.4489 24.2258C11.8043 24.2258 11.2801 23.7012 11.2801 23.0568C11.2801 22.4123 11.8043 21.8878 12.4489 21.8878C13.0934 21.8878 13.6176 22.4123 13.6176 23.0568C13.6176 23.7012 13.0932 24.2258 12.4489 24.2258ZM18.1436 21.0934H7.01105V3.71105H18.1436V21.0934Z" fill="#68594B"/>
</svg>
