<svg width="49" height="49" viewBox="0 0 49 49" fill="none" xmlns="http://www.w3.org/2000/svg">
<rect y="1" width="48" height="48" rx="24" fill="#4680C2"/>
<path fill-rule="evenodd" clip-rule="evenodd" d="M39.2322 16.3211C39.4693 15.5759 39.2322 15.0339 38.1821 15.0339H34.693C33.4043 15.0339 32.9301 16.6164 32.3532 17.7687C31.5933 19.2862 30.3554 21.4938 28.8666 23.1637C28.0536 23.9767 27.681 24.2477 27.2407 24.2477C27.0035 24.2477 26.6987 23.9767 26.6987 23.2315V16.2872C26.6987 15.4065 26.4277 15 25.6824 15H20.1948C19.6528 15 19.3141 15.4065 19.3141 15.813C19.3141 16.6599 20.5674 16.8631 20.7029 19.2343V24.3832C20.7029 25.5011 20.4997 25.7043 20.0593 25.7043C18.8737 25.7043 15.9944 21.3345 14.2668 16.355C13.928 15.3726 13.5893 15 12.7086 15H9.18559C8.16938 15 8 15.4743 8 15.9824C8 16.897 9.18559 21.5039 13.5215 27.6013C16.4009 31.7678 20.4997 34.0035 24.192 34.0035C26.4277 34.0035 26.6987 33.4954 26.6987 32.6486V29.4983C26.6987 28.482 26.9019 28.3127 27.6133 28.3127C28.1214 28.3127 29.036 28.5836 31.1023 30.5822C33.4735 32.9534 33.88 34.0374 35.2011 34.0374H38.6902C39.7064 34.0374 40.1807 33.5293 39.9097 32.5469C39.6048 31.5646 38.4531 30.1419 36.9626 28.4481C36.1496 27.4997 34.9301 26.4496 34.5575 25.9414C34.1056 25.339 35.097 23.5832 35.5152 22.9569C36.7922 21.0444 38.9276 17.7268 39.2322 16.3211Z" fill="white"/>
</svg>
