<svg width="69" height="69" viewBox="0 0 69 69" fill="none" xmlns="http://www.w3.org/2000/svg">
<path d="M46.6665 22.1951V17.7561H22.252V27.7439H27.8007V32.1829H55.5445V22.1951H46.6665Z" fill="#BC823C"/>
<path d="M0.0585938 0V43.2804H1.16835C1.16835 41.2884 2.48889 39.6227 4.29711 39.0597C3.41549 37.3843 3.65987 35.2726 5.0682 33.8632C5.2378 33.6941 5.41879 33.5435 5.60736 33.4069V11.0975C8.67273 11.0975 11.1561 8.61305 11.1561 5.54877H57.7657C57.7657 8.61305 60.2497 11.0975 63.3145 11.0975V39.9511C60.2497 39.9511 57.7657 42.4356 57.7657 45.4999H27.189C26.6331 46.4433 25.7428 47.1678 24.6742 47.501C25.2437 48.5826 25.3358 49.8457 24.9549 50.9842L25.1624 51.0486H68.8633V0L0.0585938 0Z" fill="#BC823C"/>
<path d="M55.5456 15.5365H13.375V8.87793H55.5456V15.5365Z" fill="#BC823C"/>
<path d="M63.3126 9.98773C60.8644 9.98773 58.8735 7.99689 58.8735 5.54872V4.43896H10.0444V5.54872C10.0444 7.99689 8.05358 9.98773 5.6054 9.98773H4.49565V32.8932C4.42575 32.956 4.35043 33.0119 4.2827 33.0796C2.84782 34.5145 2.33846 36.5709 2.87221 38.4707C1.15122 39.4384 0.0566406 41.2505 0.0566406 43.2803C0.0566406 45.3102 1.15122 47.1222 2.87221 48.09C2.33846 49.9909 2.84782 52.0462 4.2827 53.4811C4.49457 53.6929 4.72324 53.8772 4.95949 54.0495L0.496098 65.9549L6.22585 64.5222L9.21102 68.9997L13.5016 57.6096C13.8223 57.667 14.1486 57.7071 14.4834 57.7071C14.8188 57.7071 15.1451 57.667 15.4658 57.6096L19.7558 68.9997L22.741 64.5222L28.4718 65.9549L24.0074 54.0495C24.2436 53.8782 24.4723 53.6929 24.6842 53.4811C26.1196 52.0462 26.6289 49.9898 26.0947 48.09C26.7649 47.7139 27.3366 47.2056 27.7885 46.6096H58.8735V45.4998C58.8735 43.0517 60.8644 41.0608 63.3126 41.0608H64.4223V9.98773H63.3126ZM23.4725 38.9567C22.4907 36.9225 20.8423 35.2747 18.8081 34.2923L19.2199 34.0761C20.5204 33.3912 22.0853 33.6209 23.1154 34.6499C24.1439 35.6773 24.3737 37.2433 23.6898 38.5449L23.4725 38.9567ZM22.2517 43.2803C22.2517 47.5638 18.7658 51.0486 14.4834 51.0486C10.201 51.0486 6.71516 47.5638 6.71516 43.2803C6.71516 38.9968 10.201 35.512 14.4834 35.512C18.7658 35.512 22.2517 38.9968 22.2517 43.2803ZM14.4834 33.2925C13.3271 33.2925 12.2195 33.5001 11.1867 33.8642L11.3243 33.4226C11.7589 32.0175 13.0285 31.073 14.4834 31.073C15.9384 31.073 17.208 32.0175 17.6442 33.4215L17.7818 33.8631C16.7474 33.5001 15.6398 33.2925 14.4834 33.2925ZM5.49432 38.9567L5.27703 38.5438C4.59319 37.2422 4.82294 35.6762 5.85196 34.6488C6.88043 33.6209 8.44752 33.3912 9.74693 34.075L10.1588 34.2912C8.12457 35.2747 6.47673 36.9225 5.49432 38.9567ZM2.27615 43.2803C2.27615 41.8265 3.22063 40.5558 4.62462 40.1196L5.06624 39.9819C4.70319 41.0164 4.49565 42.124 4.49565 43.2803C4.49565 44.4367 4.70319 45.5443 5.06733 46.5787L4.6257 46.4411C3.22063 46.0049 2.27615 44.7342 2.27615 43.2803ZM5.27703 48.0168L5.49432 47.6039C6.47673 49.6381 8.12457 51.2859 10.1588 52.2694L9.74693 52.4856C8.44535 53.1706 6.88043 52.9408 5.85196 51.9118C4.82294 50.8833 4.59319 49.3184 5.27703 48.0168ZM8.65831 64.1706L7.20447 61.9895L4.05619 62.7763L6.98826 54.9593C7.86393 55.1527 8.78402 55.1403 9.67378 54.8915C10.1089 55.6664 10.7218 56.3042 11.4419 56.7816L8.65831 64.1706ZM11.3232 53.1391L11.1856 52.6975C12.2195 53.0606 13.3271 53.2681 14.4834 53.2681C15.6398 53.2681 16.7474 53.0606 17.7807 52.6964L17.6431 53.1381C17.208 54.5431 15.9384 55.4876 14.4834 55.4876C13.0285 55.4876 11.7589 54.5431 11.3232 53.1391ZM24.9096 62.7763L21.7624 61.9895L20.3085 64.1706L17.5255 56.7827C18.2456 56.3042 18.858 55.6664 19.2931 54.8926C20.1823 55.1413 21.1018 55.1549 21.9775 54.9614L24.9096 62.7763ZM23.1154 51.9118C22.0853 52.9397 20.5183 53.1695 19.2199 52.4856L18.8081 52.2694C20.8423 51.2859 22.4907 49.6381 23.4725 47.605L23.6898 48.0179C24.3737 49.3184 24.1439 50.8844 23.1154 51.9118ZM24.3428 46.4411L23.9012 46.5787C24.2637 45.5443 24.4712 44.4367 24.4712 43.2803C24.4712 42.124 24.2637 41.0164 23.9001 39.9819L24.3417 40.1196C25.7462 40.5558 26.6907 41.8265 26.6907 43.2803C26.6907 44.7342 25.7462 46.0049 24.3428 46.4411ZM62.2028 38.9334C59.4187 39.4016 57.216 41.6059 56.7462 44.3901H28.7861C28.8604 44.0292 28.9102 43.6607 28.9102 43.2803C28.9102 41.2505 27.8162 39.4384 26.0947 38.4707C26.6289 36.5698 26.1196 34.5145 24.6842 33.0796C23.2493 31.6458 21.1956 31.1375 19.2931 31.6691C18.3264 29.9476 16.5133 28.8535 14.4834 28.8535C12.4536 28.8535 10.6405 29.9476 9.67378 31.6691C8.69191 31.3949 7.6721 31.4025 6.71516 31.6658V12.1151C9.49984 11.6459 11.7025 9.44261 12.1718 6.65847H56.7462C57.216 9.44261 59.4187 11.6459 62.2028 12.1151V38.9334Z" fill="black"/>
<path d="M14.4843 37.7317C11.4249 37.7317 8.93555 40.221 8.93555 43.2805C8.93555 46.3399 11.4249 48.8292 14.4843 48.8292C17.5443 48.8292 20.0331 46.3399 20.0331 43.2805C20.0331 40.221 17.5443 37.7317 14.4843 37.7317ZM14.4843 46.6097C12.649 46.6097 11.1551 45.1158 11.1551 43.2805C11.1551 41.4451 12.649 39.9512 14.4843 39.9512C16.3202 39.9512 17.8136 41.4451 17.8136 43.2805C17.8136 45.1158 16.3202 46.6097 14.4843 46.6097Z" fill="black"/>
<path d="M44.4473 39.9512H55.5448V42.1707H44.4473V39.9512Z" fill="black"/>
<path d="M31.1309 39.9512H42.2284V42.1707H31.1309V39.9512Z" fill="black"/>
<path d="M22.252 17.7561H46.6665V19.9756H22.252V17.7561Z" fill="black"/>
<path d="M13.373 22.1951H15.5926V24.4146H13.373V22.1951Z" fill="black"/>
<path d="M17.8125 22.1951H20.032V24.4146H17.8125V22.1951Z" fill="black"/>
<path d="M22.252 22.1951H55.5445V24.4146H22.252V22.1951Z" fill="black"/>
<path d="M22.252 26.634H55.5445V28.8535H22.252V26.634Z" fill="black"/>
<path d="M27.8008 31.0732H55.5446V33.2927H27.8008V31.0732Z" fill="black"/>
</svg>
